<svg xmlns="http://www.w3.org/2000/svg" xmlns:xlink="http://www.w3.org/1999/xlink" width="500" zoomAndPan="magnify" viewBox="0 0 375 374.999991" height="500" preserveAspectRatio="xMidYMid meet" version="1.0"><defs><g/><clipPath id="aa03be10b8"><path d="M 106 123 L 188 123 L 188 212.851562 L 106 212.851562 Z M 106 123 " clip-rule="nonzero"/></clipPath><clipPath id="e1df3e93a6"><path d="M 105.988281 122 L 189 122 L 189 212.851562 L 105.988281 212.851562 Z M 105.988281 122 " clip-rule="nonzero"/></clipPath><clipPath id="ca45d53934"><path d="M 187 123 L 268 123 L 268 212.851562 L 187 212.851562 Z M 187 123 " clip-rule="nonzero"/></clipPath><clipPath id="8e7f84e6b0"><path d="M 186 122 L 268.738281 122 L 268.738281 212.851562 L 186 212.851562 Z M 186 122 " clip-rule="nonzero"/></clipPath><clipPath id="5e1f4e86f1"><path d="M 114 116 L 188 116 L 188 212.851562 L 114 212.851562 Z M 114 116 " clip-rule="nonzero"/></clipPath><clipPath id="ceb4e8d9c3"><path d="M 113 115 L 189 115 L 189 212.851562 L 113 212.851562 Z M 113 115 " clip-rule="nonzero"/></clipPath><clipPath id="49b2bd4540"><path d="M 187 116 L 261 116 L 261 212.851562 L 187 212.851562 Z M 187 116 " clip-rule="nonzero"/></clipPath><clipPath id="24fa2ed4a1"><path d="M 186 115 L 262 115 L 262 212.851562 L 186 212.851562 Z M 186 115 " clip-rule="nonzero"/></clipPath><clipPath id="c38deba29a"><path d="M 121 110 L 188 110 L 188 212.851562 L 121 212.851562 Z M 121 110 " clip-rule="nonzero"/></clipPath><clipPath id="240b958d19"><path d="M 120 109.351562 L 189 109.351562 L 189 212.851562 L 120 212.851562 Z M 120 109.351562 " clip-rule="nonzero"/></clipPath><clipPath id="c92b30bb98"><path d="M 185 110 L 252 110 L 252 212.851562 L 185 212.851562 Z M 185 110 " clip-rule="nonzero"/></clipPath><clipPath id="b7fdf00a44"><path d="M 184 109.351562 L 253 109.351562 L 253 212.851562 L 184 212.851562 Z M 184 109.351562 " clip-rule="nonzero"/></clipPath><clipPath id="4870f3eedc"><path d="M 165 57 L 242 57 L 242 229 L 165 229 Z M 165 57 " clip-rule="nonzero"/></clipPath><clipPath id="80f0fbc26e"><path d="M 129.417969 112.039062 L 241.039062 56.890625 L 299.175781 174.5625 L 187.558594 229.710938 Z M 129.417969 112.039062 " clip-rule="nonzero"/></clipPath><clipPath id="f5ee887a06"><path d="M 129.417969 112.039062 L 241.039062 56.890625 L 299.175781 174.5625 L 187.558594 229.710938 Z M 129.417969 112.039062 " clip-rule="nonzero"/></clipPath><clipPath id="0fd7b4fd7b"><path d="M 241.441406 31.683594 L 272.941406 31.683594 L 272.941406 63.183594 L 241.441406 63.183594 Z M 241.441406 31.683594 " clip-rule="nonzero"/></clipPath><clipPath id="208bc2c3fa"><path d="M 257.125 51.808594 L 281.875 51.808594 L 281.875 76.558594 L 257.125 76.558594 Z M 257.125 51.808594 " clip-rule="nonzero"/></clipPath></defs><g clip-path="url(#aa03be10b8)"><path fill="#db5300" d="M 187.363281 212.042969 L 106.804688 211.039062 L 106.804688 123.363281 L 187.363281 123.363281 Z M 187.363281 212.042969 " fill-opacity="1" fill-rule="nonzero"/></g><g clip-path="url(#e1df3e93a6)"><path fill="#db5300" d="M 187.363281 212.855469 C 187.363281 212.855469 187.359375 212.855469 187.355469 212.855469 L 106.792969 211.851562 C 106.347656 211.847656 105.988281 211.484375 105.988281 211.039062 L 105.988281 123.363281 C 105.988281 122.914062 106.355469 122.550781 106.804688 122.550781 L 187.363281 122.550781 C 187.8125 122.550781 188.179688 122.914062 188.179688 123.363281 L 188.179688 212.042969 C 188.179688 212.257812 188.089844 212.46875 187.9375 212.621094 C 187.785156 212.769531 187.578125 212.855469 187.363281 212.855469 Z M 107.621094 210.234375 L 186.550781 211.214844 L 186.550781 124.175781 L 107.621094 124.175781 Z M 107.621094 210.234375 " fill-opacity="1" fill-rule="nonzero"/></g><g clip-path="url(#ca45d53934)"><path fill="#db5300" d="M 187.363281 212.042969 L 267.925781 211.039062 L 267.925781 123.363281 L 187.363281 123.363281 Z M 187.363281 212.042969 " fill-opacity="1" fill-rule="nonzero"/></g><g clip-path="url(#8e7f84e6b0)"><path fill="#db5300" d="M 187.363281 212.855469 C 187.148438 212.855469 186.945312 212.769531 186.792969 212.621094 C 186.640625 212.46875 186.550781 212.257812 186.550781 212.042969 L 186.550781 123.363281 C 186.550781 122.914062 186.914062 122.550781 187.363281 122.550781 L 267.925781 122.550781 C 268.375 122.550781 268.738281 122.914062 268.738281 123.363281 L 268.738281 211.039062 C 268.738281 211.484375 268.382812 211.851562 267.9375 211.851562 L 187.378906 212.855469 C 187.371094 212.855469 187.367188 212.855469 187.363281 212.855469 Z M 188.183594 124.175781 L 188.183594 211.214844 L 267.113281 210.234375 L 267.113281 124.175781 Z M 188.183594 124.175781 " fill-opacity="1" fill-rule="nonzero"/></g><g clip-path="url(#5e1f4e86f1)"><path fill="#ffffff" d="M 187.363281 212.042969 C 187.363281 212.042969 167.746094 205.582031 150.6875 205.582031 C 133.628906 205.582031 114.011719 205.582031 114.011719 205.582031 L 114.011719 116.796875 C 114.011719 116.796875 124.570312 116.796875 148.105469 116.796875 C 171.644531 116.796875 187.363281 123.257812 187.363281 123.257812 Z M 187.363281 212.042969 " fill-opacity="1" fill-rule="nonzero"/></g><g clip-path="url(#ceb4e8d9c3)"><path fill="#db5300" d="M 187.363281 212.855469 C 187.28125 212.855469 187.191406 212.84375 187.109375 212.8125 C 186.914062 212.746094 167.414062 206.394531 150.6875 206.394531 L 114.007812 206.394531 C 113.558594 206.394531 113.191406 206.03125 113.191406 205.582031 L 113.191406 116.796875 C 113.191406 116.347656 113.558594 115.984375 114.007812 115.984375 L 148.101562 115.984375 C 171.53125 115.984375 187.515625 122.441406 187.675781 122.503906 C 187.980469 122.632812 188.179688 122.929688 188.179688 123.261719 L 188.179688 212.042969 C 188.179688 212.300781 188.050781 212.550781 187.839844 212.703125 C 187.703125 212.804688 187.535156 212.855469 187.363281 212.855469 Z M 114.820312 204.765625 L 150.683594 204.765625 C 165.410156 204.765625 182.203125 209.597656 186.546875 210.929688 L 186.546875 123.816406 C 183.679688 122.742188 168.875 117.613281 148.101562 117.613281 L 114.820312 117.613281 Z M 114.820312 204.765625 " fill-opacity="1" fill-rule="nonzero"/></g><g clip-path="url(#49b2bd4540)"><path fill="#ffffff" d="M 187.363281 212.042969 C 187.363281 212.042969 206.984375 205.582031 224.042969 205.582031 C 241.101562 205.582031 260.71875 205.582031 260.71875 205.582031 L 260.71875 116.796875 C 260.71875 116.796875 250.160156 116.796875 226.625 116.796875 C 203.085938 116.796875 187.363281 123.257812 187.363281 123.257812 Z M 187.363281 212.042969 " fill-opacity="1" fill-rule="nonzero"/></g><g clip-path="url(#24fa2ed4a1)"><path fill="#db5300" d="M 187.363281 212.855469 C 187.195312 212.855469 187.03125 212.804688 186.886719 212.699219 C 186.675781 212.546875 186.546875 212.296875 186.546875 212.039062 L 186.546875 123.257812 C 186.546875 122.929688 186.746094 122.628906 187.050781 122.503906 C 187.210938 122.4375 203.195312 115.980469 226.625 115.980469 L 260.71875 115.980469 C 261.167969 115.980469 261.535156 116.34375 261.535156 116.792969 L 261.535156 205.574219 C 261.535156 206.023438 261.167969 206.386719 260.71875 206.386719 L 224.042969 206.386719 C 207.308594 206.386719 187.8125 212.746094 187.617188 212.804688 C 187.539062 212.84375 187.453125 212.855469 187.363281 212.855469 Z M 188.183594 123.816406 L 188.183594 210.933594 C 192.527344 209.601562 209.320312 204.769531 224.046875 204.769531 L 259.910156 204.769531 L 259.910156 117.613281 L 226.625 117.613281 C 205.851562 117.613281 191.046875 122.742188 188.183594 123.816406 Z M 188.183594 123.816406 " fill-opacity="1" fill-rule="nonzero"/></g><g clip-path="url(#c38deba29a)"><path fill="#ffffff" d="M 187.363281 212.042969 C 187.363281 212.042969 174.789062 198.960938 157.726562 198.960938 C 140.667969 198.960938 121.050781 198.960938 121.050781 198.960938 L 121.050781 110.175781 C 121.050781 110.175781 131.609375 110.175781 155.148438 110.175781 C 178.683594 110.175781 187.363281 123.257812 187.363281 123.257812 Z M 187.363281 212.042969 " fill-opacity="1" fill-rule="nonzero"/></g><g clip-path="url(#240b958d19)"><path fill="#db5300" d="M 187.363281 212.855469 C 187.148438 212.855469 186.933594 212.765625 186.777344 212.605469 C 186.65625 212.476562 174.230469 199.773438 157.730469 199.773438 L 121.050781 199.773438 C 120.601562 199.773438 120.238281 199.410156 120.238281 198.960938 L 120.238281 110.175781 C 120.238281 109.726562 120.601562 109.363281 121.050781 109.363281 L 155.148438 109.363281 C 178.851562 109.363281 187.679688 122.257812 188.042969 122.808594 C 188.128906 122.941406 188.179688 123.097656 188.179688 123.257812 L 188.179688 212.039062 C 188.179688 212.371094 187.976562 212.667969 187.667969 212.792969 C 187.570312 212.835938 187.46875 212.855469 187.363281 212.855469 Z M 121.863281 198.144531 L 157.726562 198.144531 C 171.84375 198.144531 182.78125 206.742188 186.546875 210.136719 L 186.546875 123.519531 C 185.363281 121.9375 176.378906 110.992188 155.148438 110.992188 L 121.863281 110.992188 Z M 121.863281 198.144531 " fill-opacity="1" fill-rule="nonzero"/></g><g clip-path="url(#c92b30bb98)"><path fill="#ffffff" d="M 185.574219 212.042969 C 185.574219 212.042969 198.152344 198.960938 215.210938 198.960938 C 232.269531 198.960938 251.890625 198.960938 251.890625 198.960938 L 251.890625 110.175781 C 251.890625 110.175781 241.328125 110.175781 217.792969 110.175781 C 194.253906 110.175781 185.574219 123.257812 185.574219 123.257812 Z M 185.574219 212.042969 " fill-opacity="1" fill-rule="nonzero"/></g><g clip-path="url(#b7fdf00a44)"><path fill="#db5300" d="M 185.574219 212.855469 C 185.46875 212.855469 185.371094 212.835938 185.273438 212.796875 C 184.960938 212.671875 184.761719 212.375 184.761719 212.042969 L 184.761719 123.257812 C 184.761719 123.097656 184.804688 122.941406 184.898438 122.808594 C 185.257812 122.257812 194.089844 109.363281 217.792969 109.363281 L 251.890625 109.363281 C 252.339844 109.363281 252.703125 109.726562 252.703125 110.175781 L 252.703125 198.957031 C 252.703125 199.40625 252.339844 199.769531 251.890625 199.769531 L 215.207031 199.769531 C 198.6875 199.769531 186.285156 212.472656 186.160156 212.601562 C 186.003906 212.765625 185.792969 212.855469 185.574219 212.855469 Z M 186.386719 123.519531 L 186.386719 210.136719 C 190.15625 206.742188 201.09375 198.144531 215.207031 198.144531 L 251.070312 198.144531 L 251.070312 110.992188 L 217.792969 110.992188 C 196.558594 110.992188 187.574219 121.9375 186.386719 123.519531 Z M 186.386719 123.519531 " fill-opacity="1" fill-rule="nonzero"/></g><g fill="#db5300" fill-opacity="1"><g transform="translate(121.626896, 179.047606)"><g><path d="M 15.671875 0.171875 C 15.347656 0.0546875 14.65625 0 13.59375 0 L 4.859375 0 C 4.128906 0 3.546875 -0.113281 3.109375 -0.34375 C 2.671875 -0.570312 2.453125 -0.992188 2.453125 -1.609375 C 2.453125 -2.046875 2.5625 -2.40625 2.78125 -2.6875 C 3.3125 -2.539062 3.804688 -2.46875 4.265625 -2.46875 C 4.734375 -2.46875 5.09375 -2.515625 5.34375 -2.609375 C 5.59375 -2.710938 5.804688 -2.890625 5.984375 -3.140625 C 6.378906 -3.660156 6.59375 -4.535156 6.625 -5.765625 L 6.625 -27.390625 C 6.582031 -28.367188 6.257812 -28.988281 5.65625 -29.25 C 5.46875 -29.332031 5.21875 -29.410156 4.90625 -29.484375 L 3.890625 -29.703125 C 3.191406 -29.867188 2.765625 -30.070312 2.609375 -30.3125 C 2.460938 -30.5625 2.390625 -30.8125 2.390625 -31.0625 C 2.390625 -31.59375 2.5 -31.992188 2.71875 -32.265625 C 3.039062 -32.160156 3.734375 -32.109375 4.796875 -32.109375 L 13.53125 -32.109375 C 14.257812 -32.109375 14.835938 -31.988281 15.265625 -31.75 C 15.703125 -31.519531 15.921875 -31.101562 15.921875 -30.5 C 15.921875 -30.019531 15.816406 -29.660156 15.609375 -29.421875 C 15.078125 -29.566406 14.566406 -29.640625 14.078125 -29.640625 C 13.597656 -29.640625 13.222656 -29.582031 12.953125 -29.46875 C 12.679688 -29.363281 12.441406 -29.1875 12.234375 -28.9375 C 11.816406 -28.40625 11.59375 -27.535156 11.5625 -26.328125 L 11.5625 -4.6875 C 11.59375 -4.007812 11.722656 -3.550781 11.953125 -3.3125 C 12.304688 -2.988281 12.734375 -2.773438 13.234375 -2.671875 C 13.734375 -2.566406 14.144531 -2.472656 14.46875 -2.390625 C 14.800781 -2.316406 15.082031 -2.222656 15.3125 -2.109375 C 15.757812 -1.890625 15.984375 -1.515625 15.984375 -0.984375 C 15.984375 -0.460938 15.878906 -0.078125 15.671875 0.171875 Z M 33 -29.484375 C 32.664062 -29.597656 32.296875 -29.65625 31.890625 -29.65625 C 31.484375 -29.65625 31.160156 -29.582031 30.921875 -29.4375 C 30.691406 -29.289062 30.4375 -29.085938 30.15625 -28.828125 C 29.875 -28.566406 29.566406 -28.253906 29.234375 -27.890625 L 18.171875 -16.4375 C 20.734375 -15.726562 22.945312 -14.007812 24.8125 -11.28125 C 25.34375 -10.519531 25.835938 -9.757812 26.296875 -9 L 27.578125 -6.828125 C 28.960938 -4.441406 30.238281 -3.28125 31.40625 -3.34375 C 31.976562 -3.34375 32.425781 -3.410156 32.75 -3.546875 C 33.082031 -3.691406 33.316406 -3.765625 33.453125 -3.765625 C 33.597656 -3.765625 33.75 -3.65625 33.90625 -3.4375 C 34.070312 -3.226562 34.15625 -2.984375 34.15625 -2.703125 C 34.15625 -2.421875 34.035156 -2.085938 33.796875 -1.703125 C 33.566406 -1.316406 33.234375 -0.972656 32.796875 -0.671875 C 31.816406 0.0351562 30.738281 0.390625 29.5625 0.390625 C 28.382812 0.390625 27.441406 0.238281 26.734375 -0.0625 C 26.023438 -0.375 25.378906 -0.851562 24.796875 -1.5 C 24.222656 -2.15625 23.691406 -2.898438 23.203125 -3.734375 C 22.710938 -4.566406 22.242188 -5.410156 21.796875 -6.265625 L 20.484375 -8.796875 C 18.929688 -11.742188 17.238281 -13.507812 15.40625 -14.09375 C 15.132812 -14.175781 14.882812 -14.195312 14.65625 -14.15625 C 14.4375 -14.125 14.179688 -14.085938 13.890625 -14.046875 C 13.722656 -14.109375 13.59375 -14.304688 13.5 -14.640625 C 13.414062 -14.984375 13.375 -15.265625 13.375 -15.484375 C 13.375 -15.703125 13.460938 -15.890625 13.640625 -16.046875 L 24.25 -27.8125 C 24.601562 -28.1875 24.78125 -28.492188 24.78125 -28.734375 C 24.78125 -29.234375 23.988281 -29.585938 22.40625 -29.796875 C 21.71875 -29.878906 21.300781 -30.03125 21.15625 -30.25 C 21.007812 -30.46875 20.9375 -30.71875 20.9375 -31 C 20.9375 -31.53125 21.050781 -31.929688 21.28125 -32.203125 C 21.53125 -32.140625 21.765625 -32.109375 21.984375 -32.109375 L 30.140625 -32.109375 C 31.640625 -32.109375 32.609375 -31.90625 33.046875 -31.5 C 33.242188 -31.3125 33.34375 -31.085938 33.34375 -30.828125 C 33.34375 -30.179688 33.226562 -29.734375 33 -29.484375 Z M 33 -29.484375 "/></g></g></g><g fill="#db5300" fill-opacity="1"><g transform="translate(155.482363, 179.047606)"><g/></g></g><g fill="#db5300" fill-opacity="1"><g transform="translate(170.556977, 179.047606)"><g/></g></g><g fill="#db5300" fill-opacity="1"><g transform="translate(185.631591, 179.047606)"><g/></g></g><g fill="#db5300" fill-opacity="1"><g transform="translate(200.706206, 179.047606)"><g/></g></g><g fill="#db5300" fill-opacity="1"><g transform="translate(215.78705, 179.047606)"><g><path d="M 4.5 0 C 2.632812 0 1.703125 -0.535156 1.703125 -1.609375 C 1.703125 -2.097656 1.8125 -2.441406 2.03125 -2.640625 C 2.4375 -2.523438 2.859375 -2.46875 3.296875 -2.46875 C 3.734375 -2.46875 4.113281 -2.523438 4.4375 -2.640625 C 4.769531 -2.753906 5.0625 -2.914062 5.3125 -3.125 C 5.820312 -3.550781 6.078125 -4.15625 6.078125 -4.9375 L 6.078125 -27.75 C 6.046875 -28.3125 5.925781 -28.726562 5.71875 -29 C 5.507812 -29.28125 5.191406 -29.476562 4.765625 -29.59375 C 4.347656 -29.71875 4.003906 -29.804688 3.734375 -29.859375 C 3.460938 -29.921875 3.21875 -29.992188 3 -30.078125 C 2.507812 -30.285156 2.265625 -30.539062 2.265625 -30.84375 C 2.265625 -31.488281 2.367188 -31.941406 2.578125 -32.203125 C 2.867188 -32.140625 3.316406 -32.109375 3.921875 -32.109375 L 8 -32.109375 C 9.226562 -32.109375 10.332031 -31.484375 11.3125 -30.234375 L 28.921875 -7.921875 L 28.921875 -27.453125 C 28.910156 -28.015625 28.796875 -28.484375 28.578125 -28.859375 C 28.359375 -29.234375 27.992188 -29.484375 27.484375 -29.609375 C 26.972656 -29.734375 26.519531 -29.828125 26.125 -29.890625 C 25.738281 -29.953125 25.394531 -30.039062 25.09375 -30.15625 C 24.4375 -30.382812 24.109375 -30.75 24.109375 -31.25 C 24.109375 -31.664062 24.21875 -31.984375 24.4375 -32.203125 C 24.726562 -32.140625 25.175781 -32.109375 25.78125 -32.109375 L 34.21875 -32.109375 C 36.09375 -32.109375 37.03125 -31.707031 37.03125 -30.90625 C 37.03125 -30.238281 36.925781 -29.785156 36.71875 -29.546875 C 36.363281 -29.648438 35.957031 -29.703125 35.5 -29.703125 C 35.050781 -29.703125 34.660156 -29.691406 34.328125 -29.671875 C 33.992188 -29.648438 33.691406 -29.5625 33.421875 -29.40625 C 32.835938 -29.082031 32.53125 -28.425781 32.5 -27.4375 L 32.5 -0.59375 C 32.5 -0.1875 32.382812 0.0625 32.15625 0.15625 C 31.9375 0.25 31.535156 0.296875 30.953125 0.296875 C 29.960938 0.296875 28.898438 -0.4375 27.765625 -1.90625 L 9.65625 -24.6875 L 9.65625 -4.65625 C 9.726562 -3.445312 10.289062 -2.703125 11.34375 -2.421875 C 11.75 -2.335938 12.148438 -2.269531 12.546875 -2.21875 C 12.953125 -2.164062 13.304688 -2.097656 13.609375 -2.015625 C 14.328125 -1.828125 14.6875 -1.503906 14.6875 -1.046875 C 14.6875 -0.546875 14.578125 -0.160156 14.359375 0.109375 C 14.066406 0.0351562 13.625 0 13.03125 0 Z M 4.5 0 "/></g></g></g><g clip-path="url(#4870f3eedc)"><g clip-path="url(#80f0fbc26e)"><g clip-path="url(#f5ee887a06)"><path fill="#ffffff" d="M 241.359375 57.605469 C 241.359375 57.605469 241.371094 57.628906 241.371094 57.628906 C 241.382812 57.65625 241.398438 57.683594 241.410156 57.707031 C 241.421875 57.734375 241.421875 57.734375 241.433594 57.761719 C 241.449219 57.785156 241.460938 57.8125 241.460938 57.8125 C 241.472656 57.835938 241.472656 57.835938 241.460938 57.875 C 241.472656 57.902344 241.488281 57.929688 241.460938 57.941406 C 241.472656 57.96875 241.449219 57.980469 241.460938 58.007812 L 241.460938 58.136719 C 241.445312 58.175781 241.445312 58.175781 241.433594 58.214844 L 241.40625 58.292969 L 241.394531 58.332031 C 241.355469 58.382812 240.960938 59.09375 240.269531 60.308594 C 239.097656 63.769531 239.378906 69.972656 239.675781 76.007812 C 239.972656 82.367188 240.304688 88.933594 238.972656 92.988281 C 237.300781 98.183594 235.289062 101.3125 233.945312 102.980469 C 237.101562 102.292969 239.125 102.394531 239.292969 102.410156 C 239.695312 102.4375 239.992188 102.773438 239.964844 103.175781 C 239.949219 103.410156 239.808594 103.644531 239.613281 103.773438 C 239.507812 103.824219 229.359375 109.679688 224.734375 122.839844 C 223.261719 126.996094 222.226562 132.167969 221.226562 137.160156 C 219.621094 145.167969 217.949219 153.4375 214.460938 158.625 C 211.195312 163.476562 206.882812 167.515625 203.78125 170.082031 C 205.445312 169.648438 207.171875 169.410156 208.894531 169.367188 C 209.285156 169.367188 209.632812 169.683594 209.632812 170.070312 C 209.617188 170.304688 209.527344 170.511719 209.34375 170.667969 C 205.296875 173.671875 204.730469 178.09375 204.136719 182.785156 C 203.640625 186.6875 203.113281 190.734375 200.683594 194.394531 C 196.386719 200.886719 189.03125 205.976562 187.703125 206.890625 C 187.703125 207.476562 187.726562 208.046875 187.734375 208.589844 C 188.054688 220.957031 190.253906 227.441406 190.292969 227.519531 C 190.421875 227.847656 190.277344 228.207031 189.976562 228.390625 L 189.875 228.441406 C 189.5625 228.59375 189.199219 228.515625 188.96875 228.242188 C 188.824219 228.085938 185.691406 224.164062 183.867188 214.515625 C 183.527344 212.644531 183.1875 210.449219 182.988281 207.957031 C 181.644531 207.199219 175.847656 203.71875 174.160156 198.730469 C 172.574219 194.011719 170.253906 193.703125 170.253906 193.703125 C 169.890625 193.6875 169.605469 193.375 169.582031 193 C 169.558594 192.621094 169.855469 192.3125 170.207031 192.238281 C 171.195312 192.136719 172.21875 192.179688 173.191406 192.378906 C 171.460938 190.386719 169.113281 187.46875 167.75 185.101562 C 163.695312 178.011719 165.015625 173.28125 169.421875 160.652344 C 172.0625 153.164062 168.195312 145.207031 168.15625 145.128906 C 167.976562 144.765625 168.121094 144.335938 168.484375 144.15625 C 168.667969 144.066406 168.886719 144.054688 169.082031 144.121094 C 170.53125 144.699219 171.878906 145.523438 173.042969 146.566406 C 172.59375 145.460938 172.261719 144.332031 172.070312 143.160156 C 171.261719 138.253906 172.894531 133.109375 176.902344 127.863281 C 190.140625 110.578125 190.972656 104.601562 190.984375 104.5625 C 191.011719 104.289062 191.207031 104.03125 191.492188 103.957031 C 191.765625 103.851562 192.039062 103.945312 192.246094 104.167969 C 192.386719 104.324219 193.507812 105.675781 193.6875 109.441406 C 194.378906 105.863281 196.109375 101.316406 199.523438 95.652344 C 210.988281 76.75 239.878906 57.6875 240.308594 57.378906 L 240.335938 57.363281 C 240.359375 57.351562 240.414062 57.328125 240.4375 57.3125 L 240.492188 57.289062 L 240.542969 57.261719 C 240.570312 57.25 240.609375 57.261719 240.609375 57.261719 L 240.800781 57.261719 L 240.878906 57.289062 L 240.917969 57.304688 C 240.957031 57.316406 240.96875 57.34375 240.996094 57.328125 L 241.035156 57.34375 C 241.035156 57.34375 241.085938 57.382812 241.085938 57.382812 L 241.136719 57.421875 C 241.152344 57.445312 241.152344 57.445312 241.164062 57.472656 C 241.175781 57.5 241.191406 57.523438 241.230469 57.539062 C 241.253906 57.523438 241.253906 57.523438 241.269531 57.550781 C 241.371094 57.566406 241.359375 57.605469 241.359375 57.605469 Z M 241.359375 57.605469 " fill-opacity="1" fill-rule="nonzero"/><path fill="#db5300" d="M 241.359375 57.605469 C 241.34375 57.578125 241.332031 57.550781 241.292969 57.539062 C 241.253906 57.523438 241.28125 57.511719 241.269531 57.488281 L 241.214844 57.449219 C 241.203125 57.421875 241.164062 57.40625 241.164062 57.40625 L 241.125 57.394531 C 241.085938 57.382812 241.074219 57.355469 241.046875 57.367188 L 241.007812 57.355469 L 240.929688 57.328125 L 240.738281 57.328125 C 240.710938 57.339844 240.671875 57.328125 240.671875 57.328125 L 240.621094 57.355469 L 240.566406 57.378906 C 240.542969 57.390625 240.488281 57.417969 240.464844 57.429688 L 240.4375 57.445312 C 239.996094 57.726562 211.09375 76.828125 199.628906 95.730469 C 196.203125 101.371094 194.46875 105.914062 193.789062 109.519531 C 193.601562 105.730469 192.488281 104.402344 192.347656 104.246094 C 192.15625 104.050781 191.882812 103.957031 191.597656 104.035156 C 191.3125 104.109375 191.101562 104.34375 191.050781 104.628906 C 191.046875 104.691406 190.203125 110.644531 176.96875 127.925781 C 172.882812 133.148438 171.25 138.292969 172.058594 143.199219 C 172.246094 144.371094 172.578125 145.5 173.027344 146.605469 C 171.863281 145.5625 170.546875 144.722656 169.070312 144.160156 C 168.707031 144.015625 168.277344 144.195312 168.132812 144.558594 C 168.066406 144.75 168.078125 144.972656 168.167969 145.152344 C 168.207031 145.230469 172.050781 153.203125 169.445312 160.703125 C 165.042969 173.332031 163.722656 178.0625 167.773438 185.152344 C 169.140625 187.519531 171.488281 190.4375 173.214844 192.433594 C 172.242188 192.234375 171.21875 192.1875 170.234375 192.289062 C 169.871094 192.339844 169.582031 192.675781 169.605469 193.050781 C 169.628906 193.425781 169.902344 193.714844 170.277344 193.753906 C 170.304688 193.742188 172.597656 194.0625 174.183594 198.78125 C 175.875 203.773438 181.644531 207.265625 183.015625 208.011719 C 183.25 210.515625 183.550781 212.695312 183.894531 214.566406 C 185.691406 224.164062 188.863281 228.097656 188.980469 228.265625 C 189.199219 228.515625 189.5625 228.59375 189.847656 228.453125 L 189.898438 228.425781 C 190.199219 228.246094 190.34375 227.882812 190.214844 227.558594 C 190.191406 227.507812 187.976562 220.996094 187.65625 208.628906 C 187.648438 208.085938 187.625 207.515625 187.625 206.929688 C 188.992188 206.027344 196.320312 200.953125 200.605469 194.433594 C 203.035156 190.773438 203.5625 186.726562 204.058594 182.824219 C 204.652344 178.128906 205.230469 173.671875 209.265625 170.707031 C 209.605469 170.472656 209.671875 170.019531 209.414062 169.695312 C 209.285156 169.5 209.066406 169.382812 208.816406 169.40625 C 207.09375 169.449219 205.378906 169.714844 203.703125 170.121094 C 206.804688 167.554688 211.117188 163.511719 214.382812 158.664062 C 217.871094 153.476562 219.542969 145.207031 221.152344 137.195312 C 222.171875 132.195312 223.207031 127.023438 224.65625 122.875 C 229.285156 109.71875 239.441406 103.886719 239.546875 103.835938 C 239.898438 103.632812 240.003906 103.191406 239.835938 102.851562 C 239.734375 102.644531 239.5 102.5 239.242188 102.5 C 239.074219 102.484375 237.089844 102.398438 233.894531 103.070312 C 235.238281 101.402344 237.25 98.273438 238.921875 93.078125 C 240.25 89.023438 239.917969 82.457031 239.625 76.097656 C 239.328125 70.0625 239.03125 63.832031 240.214844 60.402344 C 240.898438 59.160156 241.300781 58.472656 241.339844 58.421875 L 241.355469 58.382812 L 241.382812 58.304688 C 241.394531 58.265625 241.394531 58.265625 241.40625 58.226562 L 241.40625 58.097656 C 241.394531 58.070312 241.421875 58.058594 241.40625 58.03125 C 241.394531 58.007812 241.421875 57.992188 241.410156 57.96875 C 241.394531 57.941406 241.421875 57.929688 241.410156 57.902344 C 241.394531 57.875 241.382812 57.851562 241.382812 57.851562 C 241.371094 57.824219 241.371094 57.824219 241.355469 57.796875 C 241.34375 57.773438 241.332031 57.746094 241.320312 57.71875 C 241.359375 57.667969 241.371094 57.628906 241.359375 57.605469 Z M 238.210938 76.117188 C 238.53125 82.332031 238.839844 88.78125 237.601562 92.566406 C 235.019531 100.636719 231.582031 103.433594 231.53125 103.460938 C 231.441406 103.539062 231.375 103.601562 231.324219 103.695312 C 228.710938 104.5 226.203125 105.640625 223.820312 107.042969 C 223.46875 107.25 223.363281 107.691406 223.570312 108.042969 C 223.777344 108.394531 224.214844 108.5 224.566406 108.292969 C 229.589844 105.359375 233.980469 104.355469 236.625 104.015625 C 230.496094 108.699219 225.871094 115.058594 223.320312 122.339844 C 221.824219 126.574219 220.785156 131.8125 219.75 136.851562 C 218.171875 144.722656 216.523438 152.847656 213.207031 157.789062 C 207.757812 165.882812 199.023438 171.847656 198.960938 171.914062 L 198.90625 172.003906 C 198.128906 172.453125 197.398438 172.945312 196.722656 173.539062 C 196.433594 173.808594 196.40625 174.277344 196.675781 174.5625 C 196.949219 174.851562 197.351562 174.878906 197.648438 174.632812 C 200.464844 172.207031 204.371094 171.34375 206.734375 171.015625 C 203.722656 174.21875 203.183594 178.304688 202.632812 182.621094 C 202.148438 186.359375 201.664062 190.222656 199.402344 193.636719 C 195.847656 199.015625 189.9375 203.488281 187.621094 205.152344 C 187.675781 193.539062 189.417969 175.917969 196.558594 153.101562 C 205.761719 123.734375 229.359375 79.941406 238.070312 64.242188 C 237.808594 67.640625 238.023438 71.808594 238.210938 76.117188 Z M 217.585938 94.753906 C 206.675781 114.316406 192.53125 142.664062 187 166.433594 C 182.894531 183.992188 182.25 197.03125 182.855469 206.179688 C 180.890625 204.953125 176.816406 202.011719 175.550781 198.269531 C 174.832031 196.164062 173.957031 194.785156 173.132812 193.898438 C 174.441406 194.191406 175.667969 194.910156 176.558594 195.925781 C 176.804688 196.226562 177.273438 196.253906 177.570312 196.007812 C 177.871094 195.761719 177.898438 195.296875 177.652344 194.996094 C 177.28125 194.566406 176.851562 194.164062 176.402344 193.835938 C 176.347656 193.796875 171.226562 188.269531 169.050781 184.457031 C 165.320312 177.886719 166.492188 173.652344 170.832031 161.214844 C 172.910156 155.269531 171.304688 149.269531 170.253906 146.359375 C 171.972656 147.351562 172.835938 148.445312 173.816406 149.644531 C 174.941406 151.0625 176.21875 152.667969 179.023438 154.160156 L 179.117188 154.210938 C 179.167969 154.25 179.246094 154.277344 179.324219 154.304688 C 179.800781 154.550781 180.304688 154.789062 180.875 155.023438 C 181.238281 155.167969 181.679688 155.015625 181.824219 154.652344 C 181.96875 154.289062 181.816406 153.847656 181.453125 153.703125 C 180.84375 153.453125 180.328125 153.191406 179.835938 152.917969 C 179.035156 152.34375 174.496094 148.792969 173.550781 142.949219 C 172.820312 138.457031 174.347656 133.6875 178.105469 128.789062 C 187.515625 116.46875 190.792969 109.804688 191.894531 106.796875 C 192.175781 107.824219 192.390625 109.371094 192.289062 111.652344 C 192.117188 115.234375 193.773438 118.132812 195.066406 119.828125 C 195.476562 120.464844 195.992188 121.050781 196.585938 121.535156 C 196.925781 121.757812 197.367188 121.667969 197.601562 121.359375 C 197.808594 121.058594 197.773438 120.65625 197.488281 120.410156 C 197.050781 119.980469 196.621094 119.511719 196.234375 118.988281 C 195.554688 117.871094 195.117188 116.660156 194.929688 115.363281 C 194.402344 112 194.988281 105.984375 200.777344 96.421875 C 209.929688 81.417969 230.382812 66.164062 238.113281 60.726562 C 234.429688 66.300781 226.324219 79.042969 217.585938 94.753906 Z M 217.585938 94.753906 " fill-opacity="1" fill-rule="nonzero"/><path fill="#db5300" d="M 241.359375 57.605469 C 241.34375 57.578125 241.332031 57.550781 241.292969 57.539062 C 241.253906 57.523438 241.28125 57.511719 241.269531 57.488281 L 241.214844 57.449219 C 241.203125 57.421875 241.164062 57.40625 241.164062 57.40625 L 241.125 57.394531 C 241.085938 57.382812 241.074219 57.355469 241.046875 57.367188 L 241.007812 57.355469 L 240.929688 57.328125 L 240.738281 57.328125 C 240.710938 57.339844 240.671875 57.328125 240.671875 57.328125 L 240.621094 57.355469 L 240.566406 57.378906 C 240.542969 57.390625 240.488281 57.417969 240.464844 57.429688 L 240.4375 57.445312 C 239.996094 57.726562 211.09375 76.828125 199.628906 95.730469 C 196.203125 101.371094 194.46875 105.914062 193.789062 109.519531 C 193.601562 105.730469 192.488281 104.402344 192.347656 104.246094 C 192.15625 104.050781 191.882812 103.957031 191.597656 104.035156 C 191.3125 104.109375 191.101562 104.34375 191.050781 104.628906 C 191.046875 104.691406 190.203125 110.644531 176.96875 127.925781 C 172.882812 133.148438 171.25 138.292969 172.058594 143.199219 C 172.246094 144.371094 172.578125 145.5 173.027344 146.605469 C 171.863281 145.5625 170.546875 144.722656 169.070312 144.160156 C 168.707031 144.015625 168.277344 144.195312 168.132812 144.558594 C 168.066406 144.75 168.078125 144.972656 168.167969 145.152344 C 168.207031 145.230469 172.050781 153.203125 169.445312 160.703125 C 165.042969 173.332031 163.722656 178.0625 167.773438 185.152344 C 169.140625 187.519531 171.488281 190.4375 173.214844 192.433594 C 172.242188 192.234375 171.21875 192.1875 170.234375 192.289062 C 169.871094 192.339844 169.582031 192.675781 169.605469 193.050781 C 169.628906 193.425781 169.902344 193.714844 170.277344 193.753906 C 170.304688 193.742188 172.597656 194.0625 174.183594 198.78125 C 175.875 203.773438 181.644531 207.265625 183.015625 208.011719 C 183.25 210.515625 183.550781 212.695312 183.894531 214.566406 C 185.691406 224.164062 188.863281 228.097656 188.980469 228.265625 C 189.199219 228.515625 189.5625 228.59375 189.847656 228.453125 L 189.898438 228.425781 C 190.199219 228.246094 190.34375 227.882812 190.214844 227.558594 C 190.191406 227.507812 187.976562 220.996094 187.65625 208.628906 C 187.648438 208.085938 187.625 207.515625 187.625 206.929688 C 188.992188 206.027344 196.320312 200.953125 200.605469 194.433594 C 203.035156 190.773438 203.5625 186.726562 204.058594 182.824219 C 204.652344 178.128906 205.230469 173.671875 209.265625 170.707031 C 209.605469 170.472656 209.671875 170.019531 209.414062 169.695312 C 209.285156 169.5 209.066406 169.382812 208.816406 169.40625 C 207.09375 169.449219 205.378906 169.714844 203.703125 170.121094 C 206.804688 167.554688 211.117188 163.511719 214.382812 158.664062 C 217.871094 153.476562 219.542969 145.207031 221.152344 137.195312 C 222.171875 132.195312 223.207031 127.023438 224.65625 122.875 C 229.285156 109.71875 239.441406 103.886719 239.546875 103.835938 C 239.898438 103.632812 240.003906 103.191406 239.835938 102.851562 C 239.734375 102.644531 239.5 102.5 239.242188 102.5 C 239.074219 102.484375 237.089844 102.398438 233.894531 103.070312 C 235.238281 101.402344 237.25 98.273438 238.921875 93.078125 C 240.25 89.023438 239.917969 82.457031 239.625 76.097656 C 239.328125 70.0625 239.03125 63.832031 240.214844 60.402344 C 240.898438 59.160156 241.300781 58.472656 241.339844 58.421875 L 241.355469 58.382812 L 241.382812 58.304688 C 241.394531 58.265625 241.394531 58.265625 241.40625 58.226562 L 241.40625 58.097656 C 241.394531 58.070312 241.421875 58.058594 241.40625 58.03125 C 241.394531 58.007812 241.421875 57.992188 241.410156 57.96875 C 241.394531 57.941406 241.421875 57.929688 241.410156 57.902344 C 241.394531 57.875 241.382812 57.851562 241.382812 57.851562 C 241.371094 57.824219 241.371094 57.824219 241.355469 57.796875 C 241.34375 57.773438 241.332031 57.746094 241.320312 57.71875 C 241.359375 57.667969 241.371094 57.628906 241.359375 57.605469 Z M 186.230469 208.753906 C 186.324219 213.269531 186.757812 217.746094 187.492188 222.175781 C 186.515625 219.550781 185.789062 216.832031 185.285156 214.105469 C 183.675781 205.484375 182.929688 190.222656 188.398438 166.777344 C 193.917969 143.175781 208.007812 114.984375 218.855469 95.484375 C 222.320312 89.273438 225.667969 83.542969 228.691406 78.523438 C 217.878906 98.878906 202.269531 130.023438 195.183594 152.679688 C 187.242188 178.125 185.933594 197.21875 186.230469 208.753906 Z M 238.210938 76.117188 C 238.503906 82.347656 238.839844 88.78125 237.574219 92.578125 C 234.996094 100.648438 231.558594 103.449219 231.503906 103.472656 C 231.414062 103.550781 231.347656 103.617188 231.296875 103.707031 C 228.683594 104.511719 226.175781 105.652344 223.796875 107.054688 C 223.445312 107.261719 223.339844 107.703125 223.542969 108.054688 C 223.75 108.40625 224.191406 108.511719 224.542969 108.304688 C 229.5625 105.371094 233.953125 104.367188 236.601562 104.03125 C 230.46875 108.710938 225.847656 115.070312 223.296875 122.351562 C 221.796875 126.585938 220.761719 131.824219 219.726562 136.867188 C 218.144531 144.734375 216.496094 152.859375 213.179688 157.800781 C 207.730469 165.898438 199 171.863281 198.933594 171.925781 L 198.90625 172.003906 C 198.128906 172.453125 197.398438 172.945312 196.722656 173.539062 C 196.433594 173.808594 196.40625 174.277344 196.675781 174.5625 C 196.949219 174.851562 197.351562 174.878906 197.648438 174.632812 C 200.464844 172.207031 204.371094 171.34375 206.734375 171.015625 C 203.722656 174.21875 203.183594 178.304688 202.632812 182.621094 C 202.148438 186.359375 201.664062 190.222656 199.402344 193.636719 C 195.847656 199.015625 189.9375 203.488281 187.621094 205.152344 C 187.675781 193.539062 189.417969 175.917969 196.558594 153.101562 C 205.761719 123.734375 229.359375 79.941406 238.070312 64.242188 C 237.808594 67.640625 238.023438 71.808594 238.210938 76.117188 Z M 217.613281 94.738281 C 206.703125 114.304688 192.558594 142.652344 187 166.433594 C 182.894531 183.992188 182.25 197.03125 182.855469 206.179688 C 180.890625 204.953125 176.816406 202.011719 175.550781 198.269531 C 174.832031 196.164062 173.957031 194.785156 173.132812 193.898438 C 174.441406 194.191406 175.667969 194.910156 176.558594 195.925781 C 176.804688 196.226562 177.273438 196.253906 177.570312 196.007812 C 177.871094 195.761719 177.898438 195.296875 177.652344 194.996094 C 177.28125 194.566406 176.851562 194.164062 176.402344 193.835938 C 176.347656 193.796875 171.222656 188.269531 169.050781 184.457031 C 165.320312 177.886719 166.492188 173.652344 170.832031 161.214844 C 172.910156 155.269531 171.304688 149.269531 170.253906 146.359375 C 171.972656 147.351562 172.835938 148.445312 173.816406 149.644531 C 174.941406 151.0625 176.21875 152.667969 179.023438 154.160156 L 179.117188 154.210938 C 179.167969 154.25 179.246094 154.277344 179.324219 154.304688 C 179.800781 154.550781 180.304688 154.789062 180.875 155.023438 C 181.238281 155.167969 181.679688 155.015625 181.824219 154.652344 C 181.96875 154.289062 181.816406 153.847656 181.453125 153.703125 C 180.84375 153.453125 180.328125 153.191406 179.835938 152.917969 C 179.035156 152.34375 174.496094 148.792969 173.550781 142.949219 C 172.820312 138.457031 174.347656 133.6875 178.105469 128.789062 C 187.515625 116.46875 190.792969 109.804688 191.894531 106.796875 C 192.175781 107.824219 192.390625 109.371094 192.289062 111.652344 C 192.117188 115.234375 193.773438 118.132812 195.066406 119.828125 C 195.476562 120.464844 195.992188 121.050781 196.585938 121.535156 C 196.925781 121.757812 197.367188 121.667969 197.601562 121.359375 C 197.808594 121.058594 197.773438 120.65625 197.488281 120.410156 C 197.050781 119.980469 196.621094 119.511719 196.234375 118.988281 C 195.554688 117.871094 195.117188 116.660156 194.929688 115.363281 C 194.402344 112 194.988281 105.984375 200.777344 96.421875 C 209.929688 81.417969 230.382812 66.164062 238.113281 60.726562 C 234.429688 66.300781 226.324219 79.042969 217.613281 94.738281 Z M 217.613281 94.738281 " fill-opacity="1" fill-rule="nonzero"/></g></g></g><g clip-path="url(#0fd7b4fd7b)"><path fill="#db5300" d="M 257.191406 41.3125 C 257.378906 42.050781 257.65625 42.753906 258.035156 43.417969 C 258.410156 44.082031 258.867188 44.679688 259.40625 45.21875 C 259.945312 45.761719 260.546875 46.21875 261.210938 46.59375 C 261.875 46.96875 262.574219 47.25 263.3125 47.433594 C 262.574219 47.621094 261.875 47.902344 261.210938 48.277344 C 260.546875 48.652344 259.945312 49.109375 259.40625 49.648438 C 258.867188 50.1875 258.410156 50.789062 258.035156 51.453125 C 257.65625 52.117188 257.378906 52.816406 257.191406 53.558594 C 257.007812 52.816406 256.726562 52.117188 256.351562 51.453125 C 255.972656 50.789062 255.515625 50.1875 254.976562 49.648438 C 254.4375 49.109375 253.835938 48.652344 253.175781 48.277344 C 252.511719 47.902344 251.808594 47.621094 251.070312 47.433594 C 251.808594 47.25 252.511719 46.96875 253.175781 46.59375 C 253.835938 46.21875 254.4375 45.761719 254.976562 45.21875 C 255.515625 44.679688 255.972656 44.082031 256.351562 43.417969 C 256.726562 42.753906 257.007812 42.050781 257.191406 41.3125 M 257.191406 31.683594 C 257.191406 35.234375 257.039062 37.984375 256.808594 40.113281 C 256.757812 40.554688 256.675781 40.984375 256.554688 41.410156 C 256.433594 41.835938 256.273438 42.25 256.082031 42.648438 C 255.890625 43.050781 255.667969 43.429688 255.414062 43.789062 C 255.15625 44.152344 254.871094 44.488281 254.558594 44.800781 C 254.246094 45.117188 253.910156 45.402344 253.546875 45.65625 C 253.1875 45.914062 252.804688 46.136719 252.40625 46.328125 C 252.007812 46.519531 251.59375 46.675781 251.167969 46.796875 C 250.742188 46.917969 250.308594 47.003906 249.871094 47.050781 C 247.738281 47.285156 244.992188 47.433594 241.441406 47.433594 C 244.988281 47.433594 247.738281 47.585938 249.871094 47.820312 C 250.308594 47.867188 250.742188 47.953125 251.167969 48.074219 C 251.59375 48.195312 252.007812 48.351562 252.40625 48.542969 C 252.804688 48.734375 253.1875 48.957031 253.546875 49.214844 C 253.910156 49.46875 254.246094 49.753906 254.558594 50.066406 C 254.871094 50.382812 255.15625 50.71875 255.414062 51.078125 C 255.667969 51.441406 255.890625 51.820312 256.082031 52.222656 C 256.273438 52.621094 256.433594 53.03125 256.554688 53.457031 C 256.675781 53.882812 256.757812 54.316406 256.808594 54.757812 C 257.039062 56.886719 257.191406 59.636719 257.191406 63.1875 C 257.191406 59.636719 257.34375 56.886719 257.574219 54.757812 C 257.625 54.316406 257.707031 53.882812 257.832031 53.457031 C 257.953125 53.03125 258.109375 52.621094 258.300781 52.222656 C 258.492188 51.820312 258.714844 51.441406 258.972656 51.078125 C 259.226562 50.71875 259.511719 50.382812 259.824219 50.066406 C 260.136719 49.753906 260.476562 49.46875 260.835938 49.214844 C 261.199219 48.957031 261.578125 48.734375 261.976562 48.542969 C 262.375 48.351562 262.789062 48.195312 263.214844 48.074219 C 263.640625 47.953125 264.074219 47.867188 264.515625 47.820312 C 266.644531 47.585938 269.394531 47.433594 272.941406 47.433594 C 269.394531 47.433594 266.644531 47.285156 264.515625 47.050781 C 264.074219 47.003906 263.640625 46.917969 263.214844 46.796875 C 262.789062 46.675781 262.375 46.519531 261.976562 46.328125 C 261.578125 46.136719 261.199219 45.914062 260.835938 45.65625 C 260.476562 45.402344 260.136719 45.117188 259.824219 44.800781 C 259.511719 44.488281 259.226562 44.152344 258.972656 43.789062 C 258.714844 43.429688 258.492188 43.050781 258.300781 42.648438 C 258.109375 42.25 257.953125 41.835938 257.832031 41.410156 C 257.707031 40.984375 257.625 40.554688 257.574219 40.113281 C 257.34375 37.984375 257.191406 35.234375 257.191406 31.683594 Z M 257.191406 31.683594 " fill-opacity="1" fill-rule="nonzero"/></g><g clip-path="url(#208bc2c3fa)"><path fill="#db5300" d="M 269.5 59.371094 C 269.648438 59.953125 269.867188 60.503906 270.164062 61.023438 C 270.457031 61.546875 270.816406 62.019531 271.242188 62.441406 C 271.664062 62.867188 272.136719 63.226562 272.660156 63.519531 C 273.179688 63.816406 273.730469 64.035156 274.3125 64.183594 C 273.730469 64.328125 273.179688 64.546875 272.660156 64.84375 C 272.136719 65.136719 271.664062 65.496094 271.242188 65.921875 C 270.816406 66.34375 270.457031 66.816406 270.164062 67.339844 C 269.867188 67.859375 269.648438 68.410156 269.5 68.992188 C 269.355469 68.410156 269.136719 67.859375 268.839844 67.339844 C 268.542969 66.816406 268.183594 66.34375 267.761719 65.921875 C 267.339844 65.496094 266.867188 65.136719 266.34375 64.84375 C 265.824219 64.546875 265.273438 64.328125 264.691406 64.183594 C 265.273438 64.035156 265.824219 63.816406 266.34375 63.519531 C 266.867188 63.226562 267.339844 62.867188 267.761719 62.441406 C 268.183594 62.019531 268.542969 61.546875 268.839844 61.023438 C 269.136719 60.503906 269.355469 59.953125 269.5 59.371094 M 269.5 51.808594 C 269.5 54.59375 269.382812 56.753906 269.199219 58.429688 C 269.125 59.125 268.933594 59.789062 268.628906 60.421875 C 268.328125 61.054688 267.929688 61.617188 267.433594 62.113281 C 266.9375 62.609375 266.375 63.007812 265.742188 63.3125 C 265.109375 63.613281 264.445312 63.804688 263.746094 63.878906 C 262.074219 64.0625 259.914062 64.183594 257.125 64.183594 C 259.914062 64.183594 262.074219 64.300781 263.746094 64.484375 C 264.445312 64.5625 265.109375 64.75 265.742188 65.054688 C 266.375 65.355469 266.9375 65.753906 267.433594 66.25 C 267.929688 66.746094 268.328125 67.3125 268.628906 67.941406 C 268.933594 68.574219 269.125 69.238281 269.199219 69.9375 C 269.382812 71.609375 269.5 73.769531 269.5 76.558594 C 269.5 73.769531 269.621094 71.609375 269.804688 69.9375 C 269.878906 69.238281 270.070312 68.574219 270.371094 67.941406 C 270.675781 67.3125 271.074219 66.746094 271.570312 66.25 C 272.066406 65.753906 272.628906 65.355469 273.261719 65.054688 C 273.894531 64.75 274.558594 64.5625 275.253906 64.484375 C 276.929688 64.300781 279.089844 64.183594 281.875 64.183594 C 279.089844 64.183594 276.929688 64.0625 275.253906 63.878906 C 274.558594 63.804688 273.894531 63.613281 273.261719 63.3125 C 272.628906 63.007812 272.066406 62.609375 271.570312 62.113281 C 271.074219 61.617188 270.675781 61.054688 270.371094 60.421875 C 270.070312 59.789062 269.878906 59.125 269.804688 58.429688 C 269.621094 56.753906 269.5 54.59375 269.5 51.808594 Z M 269.5 51.808594 " fill-opacity="1" fill-rule="nonzero"/></g></svg>